<?xml version="1.0" standalone="no"?>
<!DOCTYPE svg PUBLIC "-//W3C//DTD SVG 20010904//EN"
 "http://www.w3.org/TR/2001/REC-SVG-20010904/DTD/svg10.dtd">
<svg version="1.0" xmlns="http://www.w3.org/2000/svg"
 width="875.000000pt" height="875.000000pt" viewBox="0 0 875.000000 875.000000"
 preserveAspectRatio="xMidYMid meet">

<g transform="translate(0.000000,875.000000) scale(0.100000,-0.100000)"
fill="#000000" stroke="none">
<path d="M2462 8081 c-64 -31 -64 -31 -113 -15 -67 22 -181 15 -212 -13 -12
-11 -30 -23 -40 -26 -9 -4 -20 -15 -24 -24 -3 -10 -24 -38 -45 -63 -21 -25
-48 -58 -61 -73 -70 -89 -146 -167 -162 -167 -19 0 -73 -51 -79 -74 -3 -14
-20 -33 -36 -41 -17 -9 -30 -22 -30 -29 0 -8 -20 -26 -44 -40 -25 -14 -47 -34
-50 -44 -8 -24 -104 -102 -125 -102 -28 0 -116 -57 -155 -100 -86 -95 -121
-234 -96 -376 28 -159 10 -284 -56 -380 -24 -35 -42 -64 -39 -64 10 0 82 44
104 63 l23 22 -6 -25 c-20 -70 -68 -148 -108 -176 -31 -22 -37 -30 -23 -32 21
-5 74 2 97 12 17 8 17 5 3 -40 -18 -58 -19 -113 -4 -163 9 -29 27 -48 89 -92
100 -71 231 -214 272 -296 l31 -63 -7 -137 c-4 -76 -9 -162 -12 -191 -7 -67 2
-133 22 -158 9 -11 13 -14 10 -7 -12 23 -8 149 6 183 13 33 14 29 16 -78 1
-91 6 -127 27 -188 14 -42 24 -78 23 -79 -2 -2 -35 24 -74 58 -156 137 -990
854 -1032 889 -25 20 -46 46 -47 57 -2 26 13 15 -133 96 -72 40 -127 64 -132
59 -5 -5 28 -55 80 -119 82 -101 92 -110 125 -111 19 -1 38 -4 41 -7 8 -7 34
-183 34 -227 0 -96 -50 -203 -145 -310 -26 -30 -60 -79 -74 -109 -33 -71 -33
-164 -1 -336 30 -163 21 -252 -44 -406 -6 -13 24 -39 126 -115 73 -54 213
-158 311 -231 98 -73 184 -133 192 -133 17 0 80 149 105 252 34 134 36 251 10
398 -33 177 -35 220 -15 282 21 65 44 104 101 170 43 50 84 138 84 178 0 11 2
20 5 20 9 0 499 -420 513 -440 11 -15 11 -52 1 -204 -68 -1005 448 -2007 1343
-2607 64 -43 119 -83 123 -89 17 -27 25 -2 25 75 0 69 -3 85 -15 85 -12 0 -15
14 -15 65 0 51 3 65 15 65 12 0 15 15 15 76 0 54 -4 80 -15 90 -21 22 -21 186
0 207 12 12 15 54 17 209 l3 193 311 -1 c252 -1 321 -5 365 -17 79 -23 132
-65 163 -130 25 -50 27 -62 24 -168 -2 -113 -2 -114 -35 -150 l-33 -36 29 -24
c39 -33 67 -79 54 -87 -10 -7 -9 -21 13 -139 3 -13 9 -23 16 -23 7 0 9 21 5
66 -5 62 -4 64 13 49 10 -9 20 -38 24 -65 10 -78 26 -59 26 30 0 44 -4 80 -9
80 -4 0 -11 44 -15 97 -6 85 -10 101 -31 123 -23 24 -25 34 -25 114 l0 87 25
-18 c18 -13 24 -27 25 -54 0 -56 12 -129 20 -129 4 0 11 87 15 194 l7 194 37
6 c48 8 418 8 559 -1 l114 -6 -6 -69 c-3 -37 -9 -100 -12 -138 l-6 -70 -160 0
-159 0 3 -52 3 -53 145 0 c127 -1 130 -1 25 2 -126 4 -145 11 -145 55 0 16 10
18 98 18 55 0 174 -3 265 -7 l167 -6 0 -34 c0 -18 4 -33 9 -33 11 0 21 35 21
73 l0 27 -119 0 c-66 0 -122 3 -124 8 -7 14 14 267 23 276 14 14 333 20 432 8
51 -7 99 -19 115 -29 39 -26 233 -33 252 -9 7 9 17 16 22 16 10 0 12 -130 3
-207 l-7 -53 -98 0 c-53 0 -104 -3 -113 -6 -21 -8 -22 -87 -1 -104 22 -18 22
-202 0 -220 -20 -16 -17 -151 3 -158 9 -3 12 14 12 64 l0 68 65 -64 65 -64 0
-70 0 -70 -58 57 c-32 31 -61 57 -65 57 -4 0 -7 -22 -7 -49 0 -31 -5 -53 -15
-61 -18 -15 -21 -150 -4 -167 28 -28 -5 -33 -201 -33 -135 0 -201 4 -206 11
-3 6 -1 15 7 20 16 10 24 137 10 159 -14 20 -22 9 -28 -39 -5 -40 -7 -41 -24
-25 -11 10 -19 25 -19 34 0 9 -6 22 -12 28 -9 9 -15 68 -19 185 -7 188 -3 211
46 223 18 4 25 13 25 29 0 22 -4 23 -97 30 -83 6 -102 11 -123 31 l-25 23 3
-103 c3 -84 1 -104 -12 -115 -9 -8 -16 -22 -16 -32 0 -18 -10 -19 -141 -19
l-140 0 3 -52 c4 -63 28 -80 28 -19 l0 40 137 3 c133 3 137 4 143 26 5 21 10
18 66 -40 70 -72 80 -91 57 -113 -14 -14 -17 -14 -39 0 -24 15 -24 15 -24 -24
0 -23 -7 -46 -16 -56 -20 -19 -36 -141 -22 -168 5 -9 6 -22 3 -27 -4 -6 -142
-10 -366 -10 -201 0 -358 -4 -355 -9 3 -4 -4 -17 -15 -27 -19 -17 -21 -16 -84
46 l-65 64 28 29 27 28 48 -50 c27 -28 53 -51 58 -51 5 0 9 38 9 85 0 47 -4
85 -8 85 -5 0 -13 23 -18 52 -11 64 -29 73 -38 19 -4 -26 -18 -53 -39 -75 -17
-18 -50 -52 -71 -75 -24 -25 -61 -49 -97 -63 -32 -12 -53 -25 -47 -29 29 -18
-114 -29 -385 -29 l-291 0 69 -70 69 -70 69 0 c55 0 93 -9 195 -44 322 -112
572 -180 791 -216 69 -11 129 -24 135 -30 5 -5 18 -10 28 -10 16 0 18 10 18
99 0 54 3 118 6 142 6 41 9 45 34 44 15 0 35 -7 44 -14 12 -10 55 -12 188 -9
224 5 227 6 278 135 7 18 16 33 19 33 4 0 19 -12 34 -28 l26 -27 -15 -55 c-18
-61 -93 -306 -101 -327 -6 -15 42 -19 51 -4 3 4 36 11 73 14 184 15 505 77
713 137 74 21 151 40 170 42 30 3 36 7 40 33 5 28 7 30 40 24 19 -4 29 -7 21
-8 -8 0 -12 -3 -10 -6 3 -2 41 6 85 20 43 13 126 33 184 45 129 26 187 57 250
132 54 65 107 111 282 245 304 232 552 496 744 788 334 510 507 1190 454 1785
-71 786 -448 1497 -1070 2017 -492 412 -1093 666 -1770 750 -221 27 -614 24
-824 -5 -349 -50 -695 -146 -962 -267 -42 -19 -84 -35 -94 -35 -27 0 -185 205
-335 434 -75 114 -149 201 -298 345 -74 71 -91 78 -207 87 -58 5 -72 2 -128
-25z m219 -30 c62 -32 126 -87 154 -132 14 -21 34 -47 47 -58 29 -28 13 -26
-41 4 -48 28 -66 26 -34 -2 10 -10 14 -15 8 -11 -7 4 -14 6 -17 3 -3 -3 -13 4
-23 15 -10 11 -22 20 -27 20 -9 0 -69 40 -78 52 -5 6 -85 38 -96 38 -2 0 -3
-5 -1 -12 1 -6 21 -22 44 -34 24 -13 66 -42 95 -64 29 -22 66 -51 82 -63 38
-28 106 -99 106 -109 0 -4 6 -8 14 -8 16 0 142 -114 157 -141 8 -15 6 -17 -8
-12 -10 4 -22 11 -26 17 -5 6 -5 0 -1 -14 6 -23 6 -24 -12 -10 -10 8 -58 53
-105 100 -88 86 -279 235 -332 258 -64 27 -78 7 -16 -22 23 -10 55 -32 73 -47
17 -16 77 -65 134 -110 69 -54 102 -88 102 -101 0 -14 -5 -18 -15 -14 -9 3
-15 0 -15 -10 0 -11 6 -13 21 -9 17 6 20 3 17 -12 -8 -32 19 -73 47 -71 14 1
25 3 25 4 0 1 -12 23 -26 50 l-27 49 27 -25 c15 -14 37 -36 49 -49 12 -13 32
-33 44 -44 13 -11 32 -39 43 -61 11 -23 36 -60 57 -84 21 -23 54 -67 73 -97
19 -30 38 -55 43 -55 4 0 7 -6 7 -12 -1 -13 -15 2 -95 97 -22 26 -51 60 -65
74 -14 15 -42 47 -63 70 -26 29 -42 40 -49 33 -6 -6 -6 -12 1 -16 6 -4 11 -16
11 -27 0 -10 6 -28 13 -39 10 -17 9 -22 -2 -29 -11 -7 -7 -13 18 -25 17 -9 31
-23 31 -32 0 -17 41 -70 112 -148 26 -28 48 -56 48 -62 0 -6 9 -19 20 -29 20
-18 134 -173 176 -240 31 -48 -3 -18 -48 43 -23 31 -46 62 -50 67 -5 6 -28 35
-51 65 -23 30 -54 69 -68 85 -15 17 -38 44 -53 60 -18 21 -25 25 -26 14 0 -9
7 -23 16 -30 9 -8 28 -32 42 -54 13 -22 33 -48 43 -57 30 -29 81 -108 69 -108
-5 0 -10 3 -10 8 0 7 -16 27 -105 132 -22 26 -47 56 -56 66 -19 23 -95 91
-114 101 -7 5 -30 23 -50 41 -67 62 -57 27 14 -48 39 -41 71 -79 71 -84 0 -5
7 -18 17 -28 35 -39 1 -28 -50 16 -30 25 -59 46 -66 46 -6 0 -11 4 -11 8 0 5
-26 21 -57 37 -32 15 -76 41 -98 57 -56 41 -178 118 -255 162 -36 20 -74 42
-85 48 -25 14 -40 22 -94 50 -24 13 -46 28 -48 35 -3 7 -11 13 -18 13 -7 0
-18 7 -25 15 -7 8 -21 15 -31 15 -24 0 -25 30 -1 30 14 1 13 4 -7 20 l-23 20
27 0 c46 0 200 -68 340 -151 29 -17 36 -19 26 -6 -7 9 -18 17 -23 17 -6 0 -23
11 -40 25 -60 51 9 17 104 -50 35 -24 99 -74 143 -109 86 -71 105 -80 79 -41
-9 14 -20 25 -24 25 -5 0 -15 6 -23 14 -33 34 -137 116 -146 116 -5 0 -16 6
-23 13 -62 59 -283 187 -357 207 -43 11 -47 30 -6 30 13 0 27 5 31 11 3 6 17
9 30 6 26 -5 30 3 12 21 -20 20 0 14 65 -20 34 -17 69 -35 77 -39 114 -59 247
-159 378 -284 41 -38 78 -71 83 -73 5 -2 9 -9 9 -15 1 -15 50 -52 50 -37 0 18
-20 50 -31 50 -5 0 -23 15 -40 34 -16 19 -69 67 -117 108 -48 40 -89 75 -92
78 -3 3 -21 17 -40 30 -19 13 -42 30 -50 37 -34 30 -110 82 -110 76 0 -3 -10
3 -22 14 -13 11 -41 30 -63 41 -43 22 -100 78 -88 85 5 3 39 8 77 12 67 7 69
8 49 24 -12 9 -23 25 -25 36 -2 10 -14 22 -27 25 -22 5 -21 7 15 17 21 7 49
15 62 18 12 4 20 11 16 16 -3 5 -10 6 -16 3 -7 -4 -8 -2 -4 4 4 7 18 12 31 12
13 0 27 5 30 10 4 6 -12 10 -41 10 -53 0 -53 5 3 26 50 19 121 12 174 -15z
m-387 -9 c-6 -4 -13 -15 -17 -24 -3 -10 -13 -18 -22 -18 -21 0 -19 -13 5 -28
34 -21 24 -34 -22 -28 -24 3 -70 5 -102 5 -58 1 -59 1 -41 21 10 11 31 20 46
20 29 0 48 15 28 22 -8 3 -6 10 5 21 12 12 34 17 74 17 31 0 52 -4 46 -8z m56
-12 c0 -5 -7 -7 -15 -4 -8 4 -15 8 -15 10 0 2 7 4 15 4 8 0 15 -4 15 -10z
m-164 -107 c29 -11 -7 -19 -68 -14 -39 3 -48 6 -33 12 25 10 78 11 101 2z
m-31 -41 c6 -4 11 -15 11 -24 2 -16 -9 -18 -87 -18 -49 0 -89 3 -89 8 0 4 12
15 28 24 27 18 118 24 137 10z m-51 -72 c39 -15 31 -30 -16 -30 l-43 0 30 -20
c27 -18 28 -20 8 -20 -28 0 -40 -20 -19 -32 26 -15 56 -50 50 -60 -3 -5 -16
-3 -27 5 -29 18 -65 27 -84 20 -13 -5 -11 -9 8 -24 l24 -19 -32 0 c-17 0 -35
-4 -38 -10 -11 -18 -45 -11 -45 9 0 23 -19 31 -73 31 l-42 0 40 27 c22 15 42
28 45 29 3 0 25 7 50 14 l45 14 -32 4 c-39 4 -43 23 -10 45 39 25 118 34 161
17z m185 -156 c14 -12 -19 -1 -35 12 -18 14 -18 14 6 3 14 -6 27 -13 29 -15z
m41 -14 c8 -5 11 -10 5 -10 -5 0 -17 5 -25 10 -8 5 -10 10 -5 10 6 0 17 -5 25
-10z m-399 -40 c20 -6 43 -18 50 -27 13 -15 11 -16 -15 -9 -27 7 -28 5 -22
-19 5 -20 3 -25 -12 -25 -28 0 -34 -11 -16 -31 15 -16 14 -17 -5 -12 -11 3
-29 2 -38 -2 -17 -6 -17 -7 0 -20 16 -11 10 -12 -45 -8 l-63 6 25 -21 25 -21
-32 -1 c-17 0 -35 -4 -38 -10 -3 -5 -34 -11 -68 -11 l-62 -1 47 -12 c25 -6 50
-14 54 -18 4 -5 17 -8 28 -8 34 -1 106 -38 106 -55 0 -26 -28 -29 -98 -9 -48
14 -100 19 -182 19 -107 0 -118 -2 -161 -27 -89 -52 -148 -139 -169 -248 -10
-55 1 -204 21 -290 6 -25 15 -83 19 -130 5 -47 12 -100 16 -117 4 -20 3 -33
-4 -33 -5 0 -13 26 -17 58 -4 31 -15 93 -25 137 -21 94 -35 248 -33 359 2 66
7 90 32 140 57 114 114 161 248 202 87 27 116 44 76 44 -15 0 -15 2 3 14 23
16 115 35 151 31 12 -1 23 2 23 7 0 13 -47 28 -93 28 l-42 1 45 24 c30 16 63
24 100 25 30 1 64 5 74 9 18 7 17 9 -10 18 -16 5 -47 8 -69 7 l-40 -4 30 15
c17 8 44 14 60 13 17 0 41 4 55 10 32 14 29 14 71 2z m319 -107 c74 -29 287
-138 311 -159 8 -8 20 -14 26 -14 18 0 145 -77 190 -115 7 -5 27 -21 44 -35
35 -27 93 -78 149 -130 23 -21 28 -30 15 -25 -47 17 -48 15 -17 -12 18 -15 32
-32 32 -38 0 -5 -4 -4 -9 4 -5 7 -15 11 -22 9 -9 -3 3 -21 36 -53 28 -27 44
-45 38 -41 -7 4 -13 3 -13 -3 0 -5 8 -15 18 -20 9 -6 13 -11 9 -11 -10 0 -50
20 -57 29 -15 19 -98 79 -117 85 -11 4 -24 13 -27 21 -3 8 -11 15 -18 15 -7 0
-30 17 -52 37 -38 36 -87 72 -116 86 -8 4 -46 25 -85 47 -38 22 -81 46 -95 53
-14 6 -27 14 -30 17 -3 3 -30 18 -60 34 -86 46 -152 90 -190 127 -20 19 -51
46 -70 61 -47 37 -24 35 47 -3 32 -18 69 -35 83 -39 14 -4 34 -11 45 -15 45
-17 -34 44 -111 85 -83 45 -63 46 46 3z m916 -55 c33 -40 63 -76 68 -79 5 -4
7 -11 5 -17 -2 -6 -29 22 -59 63 -30 40 -63 76 -72 78 -10 3 -18 10 -18 16 0
24 20 8 76 -61z m-56 10 c31 -35 38 -50 18 -42 -13 5 -62 74 -53 74 3 0 19
-15 35 -32z m-955 -46 c39 -24 110 -71 160 -103 49 -33 95 -59 102 -59 7 0 13
-4 13 -10 0 -5 5 -10 11 -10 12 0 151 -79 159 -90 3 -4 19 -15 35 -24 17 -9
48 -30 70 -47 22 -16 51 -37 65 -46 23 -15 108 -83 136 -108 7 -5 22 -18 34
-29 17 -13 19 -20 10 -26 -9 -5 -6 -12 11 -23 28 -20 19 -33 -13 -18 -20 10
-20 10 -4 -1 10 -7 30 -22 44 -33 14 -11 48 -30 74 -42 53 -24 127 -94 174
-163 42 -62 146 -261 140 -268 -11 -10 -37 23 -97 123 -33 56 -87 132 -119
167 -66 73 -263 210 -397 277 l-83 41 17 35 c9 19 19 35 23 35 3 0 26 -13 51
-28 92 -58 119 -73 119 -69 0 3 -37 31 -82 63 -46 31 -85 60 -88 63 -3 3 -32
20 -64 36 -93 47 -111 57 -114 67 -2 4 -8 8 -13 8 -12 0 -152 79 -244 139
-107 69 -259 194 -248 205 7 7 30 -5 118 -62z m-115 -28 c25 -29 185 -144 275
-196 43 -26 141 -72 210 -101 56 -23 60 -27 63 -61 5 -52 -7 -68 -38 -53 -17
9 -27 25 -33 54 -8 42 -37 81 -37 50 0 -9 5 -28 10 -43 6 -15 8 -29 5 -32 -7
-7 -173 62 -287 120 -153 78 -280 208 -203 208 30 0 33 24 8 52 -14 16 -14 18
-1 18 9 0 21 -7 28 -16z m-52 -127 l12 -27 -29 14 c-33 17 -42 35 -34 65 5 21
5 21 22 -2 9 -12 22 -34 29 -50z m1307 33 c3 -5 2 -10 -4 -10 -5 0 -13 5 -16
10 -3 6 -2 10 4 10 5 0 13 -4 16 -10z m-142 -60 c7 -8 22 -28 35 -45 12 -16
31 -41 42 -55 63 -82 151 -212 146 -217 -6 -6 -45 37 -46 50 0 11 -131 170
-217 264 -26 28 -30 38 -20 48 12 15 13 14 60 -45z m102 40 c3 -5 1 -10 -4
-10 -6 0 -11 5 -11 10 0 6 2 10 4 10 3 0 8 -4 11 -10z m-1345 -30 c16 -12 48
-27 72 -34 24 -7 70 -31 103 -53 90 -61 165 -102 263 -144 l44 -19 -23 -19
c-13 -10 -51 -33 -84 -50 -88 -47 -108 -69 -101 -109 13 -84 50 -81 145 8 41
39 76 68 78 66 2 -2 1 -21 -3 -42 -5 -29 -23 -53 -75 -105 -38 -37 -69 -74
-69 -84 0 -9 5 -15 11 -13 6 2 10 8 10 13 0 17 31 45 42 38 6 -4 3 -11 -8 -19
-45 -33 1 -19 126 37 253 116 284 129 307 129 12 0 56 -21 98 -46 177 -107
282 -194 347 -285 40 -56 147 -220 147 -225 0 -1 -16 -20 -36 -41 -43 -45 -94
-117 -94 -132 0 -6 -4 -11 -10 -11 -5 0 -7 -6 -4 -14 11 -29 -29 -144 -63
-181 -19 -20 -23 -27 -23 -44 0 -8 -189 -176 -199 -176 -1 0 -25 -20 -51 -45
-26 -25 -92 -83 -145 -130 -54 -47 -142 -124 -196 -172 -53 -48 -112 -94 -130
-104 -63 -32 -283 -54 -382 -37 -44 7 -62 34 -96 148 -19 65 -167 338 -249
458 -17 26 -32 51 -32 55 0 5 16 14 35 21 53 19 42 32 -11 14 -68 -23 -129 -6
-219 59 -38 29 -104 76 -146 105 -61 42 -78 59 -83 84 -19 99 7 152 126 261
106 97 194 183 224 220 16 20 18 30 10 39 -14 15 36 8 192 -27 134 -30 157
-29 157 6 0 22 -13 31 -102 75 -94 46 -165 97 -152 110 3 2 72 -29 153 -69 82
-41 154 -72 161 -69 34 12 51 -113 25 -178 -8 -19 -31 -62 -52 -97 -37 -61
-48 -102 -28 -102 6 0 10 7 10 16 0 9 17 44 38 78 53 84 64 116 65 184 0 76
-36 155 -100 220 -42 42 -59 51 -133 71 -162 44 -153 40 -146 73 3 18 2 27 -4
23 -6 -3 -10 -15 -10 -26 0 -22 -9 -24 -33 -6 -16 11 -10 22 63 121 45 61 90
127 101 147 16 32 25 38 56 42 21 2 42 4 46 5 5 1 22 -7 37 -18z m1396 -145
c15 -20 25 -38 22 -40 -2 -3 -16 13 -31 35 -32 49 -27 52 9 5z m3007 -22 c155
-29 307 -94 460 -195 111 -74 290 -251 363 -358 54 -79 117 -191 111 -197 -2
-2 -17 3 -33 12 -40 21 -66 19 -34 -3 43 -30 90 -74 102 -96 11 -20 10 -20 -8
-6 -10 8 -38 31 -62 51 -60 52 -168 106 -248 125 -57 13 -102 15 -256 10 -250
-9 -235 -15 -340 149 -72 111 -157 191 -254 239 -89 44 -164 59 -164 33 0 -9
21 -28 48 -43 66 -39 78 -49 164 -141 84 -91 120 -151 174 -292 20 -53 42
-102 48 -110 9 -12 7 -13 -9 -7 -107 44 -121 47 -214 47 -164 -1 -266 -35
-581 -197 -232 -120 -284 -157 -445 -314 -180 -176 -236 -200 -315 -134 -49
42 -101 145 -107 215 -5 49 -8 58 -19 47 -7 -8 -16 -62 -21 -139 -8 -109 -13
-134 -38 -183 -56 -110 -150 -196 -214 -196 -82 0 -171 84 -428 401 -82 101
-175 169 -278 203 -44 14 -100 26 -125 25 l-45 0 35 -13 c131 -49 280 -151
280 -193 0 -14 109 -187 273 -433 149 -225 310 -475 357 -556 47 -80 109 -178
138 -217 28 -39 52 -72 52 -73 0 -2 -72 -2 -159 -1 l-159 2 40 -40 39 -40 -46
-3 c-42 -3 -53 1 -102 39 -263 198 -692 671 -908 999 -163 249 -184 306 -165
450 13 102 34 167 72 225 45 68 157 182 188 191 l25 7 -25 -21 c-32 -27 -15
-27 62 -1 137 46 289 34 456 -37 147 -62 217 -145 277 -330 47 -144 135 -270
221 -318 56 -31 74 -33 49 -6 -10 11 -23 20 -30 20 -7 0 -20 9 -30 20 -13 15
-14 20 -5 20 10 0 11 3 3 11 -6 6 -9 17 -7 23 3 7 -7 23 -21 36 -14 13 -25 27
-25 32 0 5 17 -7 38 -26 108 -99 155 -116 59 -20 -43 42 -88 91 -100 108 l-21
31 39 -35 c46 -41 99 -75 135 -85 l25 -8 -20 24 -20 23 28 -18 c53 -33 41 -6
-25 57 -97 92 -131 149 -193 322 -6 18 -5 18 7 3 7 -9 33 -44 57 -77 24 -34
48 -61 52 -61 8 0 -12 37 -74 140 -17 28 -18 32 -4 21 25 -20 30 -8 14 30 -16
36 -97 124 -157 172 l-35 27 65 -6 c82 -8 119 -25 168 -78 51 -56 84 -114 118
-209 15 -43 30 -74 34 -70 4 4 13 25 20 46 6 20 16 37 21 37 5 0 9 20 9 43 0
97 67 284 140 394 46 68 145 168 214 215 166 114 344 154 584 129 189 -19 213
-21 208 -12 -3 5 -27 14 -52 21 l-47 13 24 20 c13 10 44 29 69 42 144 72 303
87 503 48z m-3663 -43 c22 -11 40 -23 40 -26 0 -3 -7 -18 -15 -34 -15 -29 -39
-38 -61 -22 -9 6 -15 102 -6 102 1 0 21 -9 42 -20z m725 -40 l20 -25 -22 19
c-13 11 -23 24 -23 29 0 6 1 8 3 6 1 -2 11 -15 22 -29z m-891 -57 c-6 -30 -42
-113 -48 -113 -13 0 10 99 27 118 26 28 29 28 21 -5z m582 -4 c19 -22 19 -22
-3 -8 -13 8 -23 17 -23 21 0 12 6 9 26 -13z m-506 -8 c0 -13 -50 -71 -61 -71
-10 0 6 47 23 67 12 15 38 17 38 4z m838 -46 c-3 -3 -9 2 -12 12 -6 14 -5 15
5 6 7 -7 10 -15 7 -18z m-700 -3 c8 -6 1 -13 -23 -25 -37 -18 -49 -5 -17 19
20 16 23 16 40 6z m-1064 -44 c3 -15 1 -16 -15 -8 -10 6 -23 19 -29 29 -9 17
-7 18 15 7 13 -6 26 -19 29 -28z m-39 -16 c37 -41 38 -43 12 -31 -25 11 -57
54 -57 75 0 4 1 5 3 3 1 -2 20 -24 42 -47z m1025 18 c0 -8 -51 -40 -64 -40 -2
0 -2 8 1 19 8 30 63 48 63 21z m855 10 c3 -5 1 -10 -4 -10 -6 0 -11 5 -11 10
0 6 2 10 4 10 3 0 8 -4 11 -10z m-945 -45 c0 -8 -4 -15 -10 -15 -5 0 -10 7
-10 15 0 8 5 15 10 15 6 0 10 -7 10 -15z m-40 -24 c0 -11 -107 -71 -127 -71
-31 0 -3 34 52 63 33 18 75 22 75 8z m-918 -51 c-2 -16 -9 -30 -14 -30 -6 0
-7 7 -4 16 3 9 6 25 6 35 0 11 4 18 8 15 5 -3 7 -19 4 -36z m1638 10 c11 -11
16 -20 12 -20 -5 0 -17 9 -27 20 -10 11 -15 20 -12 20 4 0 16 -9 27 -20z
m-1487 -19 c23 -10 37 -22 37 -34 0 -13 -5 -17 -17 -13 -10 3 -36 8 -58 12
-54 9 -75 21 -75 44 0 16 5 18 38 13 20 -3 54 -13 75 -22z m1704 -105 c43 -57
44 -59 15 -40 -27 17 -112 122 -112 138 0 13 55 -43 97 -98z m-1627 63 c0 -11
-4 -17 -10 -14 -5 3 -10 15 -10 26 0 11 5 17 10 14 6 -3 10 -15 10 -26z m90
-20 c0 -5 -6 -9 -14 -9 -25 0 -46 12 -46 26 0 10 6 11 30 3 17 -6 30 -15 30
-20z m-651 -29 c0 -8 -20 -37 -45 -65 l-45 -50 29 48 c17 26 33 64 37 85 6 31
9 34 15 17 5 -11 9 -27 9 -35z m2141 -85 c19 -19 41 -35 49 -35 26 -1 51 -26
61 -61 21 -73 -14 -50 -129 82 -17 20 -31 39 -31 43 0 14 18 4 50 -29z m157
-17 c-3 -7 -5 -2 -5 12 0 14 2 19 5 13 2 -7 2 -19 0 -25z m5 -18 c20 0 31 -40
16 -57 -9 -11 -14 -10 -30 4 -10 9 -17 22 -14 29 3 7 -2 18 -10 24 -8 7 -14
17 -14 23 0 5 8 3 18 -6 10 -10 26 -17 34 -17z m58 20 c0 -5 -5 -10 -11 -10
-5 0 -7 5 -4 10 3 6 8 10 11 10 2 0 4 -4 4 -10z m-2375 -99 c-5 -31 -14 -45
-40 -61 -47 -29 -49 -25 -11 25 19 24 38 54 41 66 11 33 18 14 10 -30z m2165
28 c0 -5 -4 -9 -10 -9 -5 0 -10 7 -10 16 0 8 5 12 10 9 6 -3 10 -10 10 -16z
m-2088 -21 c-15 -15 -26 -4 -18 18 5 13 9 15 18 6 9 -9 9 -15 0 -24z m2616 1
c105 -30 143 -53 239 -148 18 -18 45 -55 58 -82 35 -68 31 -75 -6 -9 -41 75
-90 122 -163 159 -92 46 -167 62 -316 68 -103 5 -129 8 -110 16 76 30 184 29
298 -4z m3078 -140 c136 -35 274 -127 322 -214 28 -49 22 -220 -11 -313 -47
-135 -132 -235 -256 -301 -127 -68 -358 -90 -532 -51 -92 20 -209 72 -209 93
0 6 21 58 46 113 51 110 74 127 85 63 4 -19 7 -28 8 -21 1 9 6 10 20 2 50 -26
56 3 9 41 -29 24 -31 29 -18 45 12 16 12 17 0 7 -21 -19 -50 -16 -50 5 0 26
16 46 30 37 8 -5 11 -4 6 3 -3 6 1 18 10 27 14 13 19 14 25 3 6 -8 8 -3 7 16
-3 32 -23 45 -41 27 -9 -9 -8 -11 6 -6 11 5 17 2 17 -8 0 -9 -8 -15 -18 -14
-16 1 -18 11 -14 111 2 61 -1 137 -6 168 l-9 58 34 26 c43 32 123 69 193 88
84 22 250 20 346 -5z m-760 -40 c65 -12 149 -53 160 -78 3 -9 9 -72 11 -141 7
-170 -17 -285 -88 -428 -42 -85 -61 -111 -102 -144 -111 -87 -280 -149 -476
-175 -106 -13 -142 -14 -230 -4 -101 12 -130 9 -101 -9 26 -16 119 -23 249
-17 230 9 432 68 555 161 43 34 47 35 41 14 -4 -13 -22 -70 -40 -128 -18 -58
-72 -231 -120 -385 -47 -154 -99 -318 -114 -364 l-27 -84 -54 -21 c-30 -11
-71 -30 -90 -40 -49 -28 -59 -28 -66 0 -4 13 -18 33 -31 44 -23 18 -41 20
-195 20 -132 0 -175 -3 -198 -15 -17 -9 -30 -20 -30 -25 0 -15 -221 -13 -252
2 -21 10 -31 27 -43 73 -10 32 -52 165 -95 295 -113 342 -110 325 -70 396 328
582 897 1037 1326 1063 11 0 47 -4 80 -10z m-5832 -187 c53 -32 96 -74 96 -96
0 -1 -18 -2 -40 -3 -40 -2 -49 6 -154 146 -13 17 -7 14 98 -47z m191 -191 c7
-12 -12 -24 -25 -16 -11 7 -4 25 10 25 5 0 11 -4 15 -9z m3800 -66 c21 -31 46
-60 57 -66 18 -10 25 -29 10 -29 -8 0 -83 94 -101 128 -20 38 -6 24 34 -33z
m-2768 -43 c25 -51 47 -115 54 -156 13 -78 7 -194 -13 -228 -7 -13 -18 -41
-25 -63 l-11 -40 -1 40 c-1 23 6 68 15 100 24 92 6 290 -26 283 -6 -2 -17 14
-25 35 -7 21 -25 56 -39 77 l-26 40 27 -1 c25 0 33 -9 70 -87z m2924 71 c13
-16 12 -17 -3 -4 -10 7 -18 15 -18 17 0 8 8 3 21 -13z m-3975 -13 c18 0 18
-34 1 -49 -19 -15 -27 -4 -26 38 0 20 3 30 6 24 2 -7 11 -13 19 -13z m94 -21
c31 -19 33 -22 17 -34 -9 -7 -17 -17 -17 -24 0 -15 -21 -14 -42 3 -25 18 -23
76 1 76 3 0 22 -10 41 -21z m2469 14 c-5 -50 -162 -216 -217 -230 -56 -14 -36
17 73 112 63 55 117 106 120 112 5 14 26 18 24 6z m31 -71 c0 -25 -55 -85 -74
-80 -11 2 -7 14 21 51 37 50 53 59 53 29z m-2397 -32 c11 -10 -13 -60 -28 -60
-13 0 -25 30 -25 63 0 14 5 17 23 12 12 -4 26 -11 30 -15z m-179 -13 c14 -10
15 -18 7 -40 -17 -45 -41 -28 -41 29 0 27 8 30 34 11z m93 -21 c28 -24 28 -25
8 -40 -29 -22 -34 -20 -50 16 -22 53 -4 63 42 24z m189 -47 l23 -21 -31 -87
c-16 -47 -49 -120 -72 -161 -69 -123 -78 -153 -77 -260 0 -52 5 -119 11 -149
29 -152 -8 -455 -75 -614 -15 -38 -16 -38 -40 -20 -25 19 -32 42 -16 58 17 19
51 141 67 240 17 106 15 230 -6 420 -6 55 -9 118 -5 140 3 22 32 90 64 150 54
103 121 273 121 309 0 21 9 20 36 -5z m-233 -29 c14 0 17 -5 12 -22 -10 -32
-31 -46 -61 -40 -20 4 -24 9 -20 26 3 11 6 27 6 35 0 9 7 11 23 7 12 -3 30 -6
40 -6z m101 -16 c5 -20 2 -32 -14 -46 -24 -23 -36 -18 -43 19 -7 37 1 53 28
53 16 0 25 -8 29 -26z m891 -46 c6 -31 4 -38 -16 -48 -20 -11 -21 -11 -16 11
4 13 7 42 7 64 1 46 14 32 25 -27z m-1046 -40 c1 -5 -6 -8 -14 -8 -9 0 -18 -7
-21 -15 -9 -21 -19 -19 -33 9 -10 18 -10 28 -1 45 l11 22 29 -23 c16 -13 29
-26 29 -30z m406 32 c22 -24 14 -49 -54 -165 -62 -105 -97 -185 -106 -245 -4
-25 1 -131 10 -235 21 -246 12 -359 -46 -545 -37 -121 -40 -126 -68 -108 -13
8 -19 18 -15 28 87 196 112 419 78 675 -26 193 -12 260 85 432 28 49 58 110
67 136 18 52 23 56 49 27z m722 -91 c-4 -60 -11 -118 -17 -127 -11 -17 -8 69
6 186 11 90 17 57 11 -59z m80 -25 c6 -103 21 -122 49 -61 11 24 14 25 9 7 -3
-14 -8 -37 -12 -53 -4 -20 -9 -25 -18 -17 -9 7 -17 -8 -33 -63 l-22 -72 6 58
c3 33 1 57 -4 57 -14 0 -34 -113 -26 -147 10 -43 75 -217 83 -223 14 -9 32
-50 23 -50 -16 0 -28 22 -83 150 -60 144 -63 170 -30 321 11 52 23 123 27 158
9 87 24 58 31 -65z m-1110 84 c15 -17 15 -20 1 -34 -22 -22 -58 -9 -58 20 0
12 2 25 5 28 11 10 36 4 52 -14z m6446 -79 c-15 -30 -129 -263 -254 -519
l-226 -465 -138 -5 c-131 -5 -138 -6 -158 -30 l-22 -25 -76 39 c-61 31 -94 41
-166 49 l-90 10 34 116 c19 64 80 262 135 441 55 179 107 348 115 375 8 28 16
51 18 53 2 2 25 -8 52 -21 108 -55 194 -71 373 -72 186 0 251 14 365 79 33 18
61 32 63 31 1 -1 -10 -26 -25 -56z m-6518 24 c0 -6 3 -15 8 -19 21 -21 -24
-44 -48 -24 -19 16 -19 25 1 45 17 17 39 16 39 -2z m495 -22 c0 -38 -50 -161
-96 -237 -97 -160 -106 -218 -69 -429 22 -123 26 -167 21 -245 -6 -107 -14
-138 -62 -262 -19 -48 -31 -94 -28 -102 8 -21 -2 -20 -37 5 l-29 20 24 47 c80
161 105 405 70 682 -22 166 -12 225 58 347 28 48 64 116 80 150 26 56 32 62
49 53 10 -6 19 -19 19 -29z m-580 19 c0 -5 2 -14 5 -22 2 -7 -2 -21 -9 -31
-14 -18 -15 -18 -35 2 -16 16 -19 26 -12 39 10 18 51 28 51 12z m163 -16 c3
-4 2 -15 -4 -26 -8 -15 -13 -17 -25 -7 -11 9 -12 15 -3 25 12 15 22 17 32 8z
m-200 -76 c-1 -7 -14 -44 -27 -83 -31 -86 -32 -116 -5 -292 21 -144 20 -194
-7 -324 -7 -36 -23 -89 -36 -118 -22 -49 -24 -51 -43 -38 -19 15 -19 16 13
110 37 110 42 205 17 342 -42 230 -39 301 19 399 26 45 29 47 49 33 12 -8 21
-21 20 -29z m139 -2 c9 -20 7 -28 -7 -43 -13 -13 -20 -14 -23 -5 -2 6 -10 12
-18 12 -21 0 -18 48 4 53 30 8 32 7 44 -17z m2814 -21 c20 -81 -52 -316 -181
-595 -89 -191 -149 -300 -167 -300 -5 0 -8 3 -6 8 2 4 28 59 59 122 106 217
158 335 190 435 18 55 43 128 56 162 15 41 23 83 23 127 0 66 14 88 26 41z
m-2858 -38 c20 -22 21 -25 7 -71 -20 -65 -19 -115 5 -291 23 -173 24 -213 6
-317 -13 -73 -70 -218 -86 -218 -4 0 -14 8 -23 18 -16 17 -15 23 7 79 13 33
29 84 37 114 19 77 17 261 -5 420 -19 131 -19 138 -1 212 10 42 21 77 25 77 3
0 16 -10 28 -23z m1085 -71 c3 -30 15 -86 28 -124 14 -45 20 -78 15 -97 -6
-24 -9 -26 -20 -14 -15 17 -44 119 -47 169 -8 117 13 174 24 66z m1873 -13 c8
-13 7 -34 -2 -78 -7 -33 -13 -71 -13 -85 -1 -14 -7 -37 -15 -52 -8 -15 -22
-53 -31 -84 -18 -64 -119 -273 -164 -344 -16 -25 -30 -51 -30 -57 -1 -13 -21
-19 -21 -7 0 3 18 36 39 73 22 36 49 96 61 131 12 36 37 102 56 146 43 101 74
222 74 286 0 43 15 88 30 88 3 0 10 -8 16 -17z m-80 -100 c-4 -27 -23 -92 -43
-145 -39 -106 -56 -129 -23 -32 19 53 36 117 54 197 10 45 19 31 12 -20z m147
16 c17 -23 13 -43 -25 -129 -13 -30 -30 -77 -38 -105 -7 -27 -16 -52 -20 -55
-3 -3 -17 -34 -29 -70 -13 -36 -37 -90 -53 -120 -17 -30 -41 -76 -55 -102 -14
-25 -33 -48 -43 -51 -16 -4 -17 -2 -5 27 7 17 34 72 58 122 25 49 65 146 90
215 25 68 53 138 61 154 9 17 16 40 16 51 0 36 12 84 21 84 4 0 14 -9 22 -21z
m70 -106 c-3 -8 0 -19 7 -23 16 -10 -1 -66 -19 -62 -6 1 -14 -4 -17 -12 -3 -8
-12 -12 -20 -9 -8 3 -14 -1 -14 -10 0 -19 -30 -90 -36 -85 -2 3 10 47 27 99
47 142 47 143 64 129 7 -6 11 -18 8 -27z m151 -209 c-3 -28 -10 -66 -14 -85
-7 -31 -8 -32 -9 -7 -1 15 -8 31 -16 35 -14 8 -13 17 2 77 15 62 18 67 30 50
10 -13 12 -34 7 -70z m-67 44 c-3 -7 -5 -2 -5 12 0 14 2 19 5 13 2 -7 2 -19 0
-25z m-392 -36 c-2 -37 -102 -246 -145 -302 -34 -45 -32 -13 4 57 20 37 60
116 89 175 28 59 53 108 53 108 1 0 0 -17 -1 -38z m-573 -453 c64 -14 135 -48
165 -81 65 -70 88 -229 45 -314 -20 -40 -83 -104 -102 -104 -6 0 -10 -4 -10
-10 0 -5 7 -10 15 -10 9 0 35 -20 60 -44 57 -58 79 -128 73 -235 -9 -155 -96
-241 -275 -272 -59 -10 -348 -8 -358 2 -1 2 -4 240 -6 529 l-4 525 80 11 c108
15 252 17 317 3z m900 -39 c40 -274 47 -616 14 -763 -46 -206 -148 -295 -325
-285 -220 13 -308 166 -319 555 -4 180 14 482 30 499 3 3 49 -2 102 -11 53 -8
109 -15 126 -15 l31 0 -8 -92 c-14 -161 -9 -577 8 -622 32 -88 73 -68 85 42 9
90 -2 572 -16 651 -6 35 -9 65 -7 67 5 6 189 22 232 20 39 -1 40 -2 47 -46z
m1948 -505 l0 -555 -135 0 -135 0 0 170 0 170 -42 0 -41 0 6 -140 7 -140 -140
0 -140 0 -2 480 c-1 264 -2 488 -2 498 -1 15 13 17 130 20 l131 3 7 -32 c3
-17 6 -128 6 -245 l0 -214 42 0 41 0 -7 270 -7 270 141 0 140 0 0 -555z m520
529 c133 -42 198 -178 214 -444 9 -141 -8 -319 -39 -418 -45 -143 -128 -209
-273 -219 -255 -18 -372 153 -372 541 0 270 59 451 169 519 75 46 198 55 301
21z m-1814 -86 c-3 -50 -6 -111 -6 -135 l0 -43 -80 0 -80 0 7 -400 6 -400
-136 0 -137 0 0 400 0 400 -80 0 -80 0 0 63 c0 34 -3 92 -6 129 l-7 68 219 3
c120 1 257 3 303 5 l84 2 -7 -92z m630 46 c-3 -26 -6 -87 -6 -135 l0 -89 -82
0 -81 0 7 -400 7 -401 -136 3 -136 3 1 398 0 397 -85 0 -85 0 0 130 0 130 218
3 c119 1 255 3 301 5 l84 2 -7 -46z m2474 -89 l0 -134 -112 -3 -113 -3 0 -70
0 -70 93 0 92 0 0 -127 0 -128 -90 0 -90 0 0 -64 0 -63 46 -7 c26 -3 73 -6
105 -6 32 0 60 -4 63 -9 3 -5 3 -63 0 -128 l-7 -120 -231 5 c-127 2 -234 7
-238 11 -4 3 -9 239 -10 523 l-3 517 55 4 c30 2 142 4 248 5 l192 2 0 -135z
m-754 -277 l9 -393 108 -3 107 -3 0 -124 0 -125 -240 0 c-184 0 -242 3 -245
13 -2 6 -6 240 -7 520 l-3 507 131 0 131 0 9 -392z m-188 -863 c5 -6 3 -60 -5
-130 -19 -172 -18 -168 -56 -162 -266 45 -322 44 -315 -5 2 -18 19 -29 77 -51
106 -41 137 -31 39 12 -43 19 -78 39 -78 44 0 12 92 2 220 -22 52 -10 100 -17
107 -14 7 3 15 26 18 51 3 26 9 62 13 79 l7 33 64 -57 63 -57 -6 -65 c-13
-122 -15 -124 -92 -110 -27 5 -63 11 -81 14 l-32 6 31 -33 c50 -53 63 -80 64
-128 2 -141 4 -160 19 -160 12 0 15 14 15 63 l0 62 65 -66 65 -67 0 -68 0 -68
-64 63 -64 63 -16 -56 c-9 -31 -22 -56 -29 -56 -7 0 -31 -25 -54 -55 -25 -32
-64 -67 -95 -84 -29 -17 -46 -31 -38 -31 36 -1 -46 -31 -115 -42 -58 -9 -104
-9 -203 0 -120 12 -250 38 -207 42 12 1 6 6 -17 12 l-38 10 7 74 c4 53 3 74
-6 74 -20 0 -14 104 9 130 19 22 23 22 77 11 31 -6 77 -11 102 -11 l45 0 -59
60 c-47 48 -54 58 -30 46 68 -34 239 -105 243 -101 11 11 -19 31 -97 66 -47
22 -107 50 -134 64 -26 14 -56 25 -66 25 -30 0 -76 44 -107 105 -27 51 -31 55
-66 55 -25 0 -38 -5 -40 -16 -4 -20 -128 106 -128 130 0 14 15 16 95 16 87 0
95 -2 95 -19 0 -26 10 -51 21 -51 5 0 9 26 9 58 0 124 57 234 150 289 60 37
91 41 111 17 11 -14 34 -16 156 -12 121 3 145 6 160 21 15 16 31 18 100 15 45
-2 86 -7 91 -13z m121 -574 c1 -23 0 -24 -19 -6 -23 21 -25 36 -8 53 14 14 26
-6 27 -47z m-1609 -535 c0 -30 0 -30 -65 34 -51 51 -65 71 -65 94 0 30 0 30
65 -34 51 -51 65 -71 65 -94z m1620 18 c0 -6 -9 -19 -20 -29 -21 -19 -22 -18
-88 48 l-66 66 24 26 24 26 63 -63 c35 -34 63 -67 63 -74z m-1046 67 c44 -45
57 -64 54 -82 -3 -22 -8 -20 -66 37 -38 37 -62 69 -62 82 0 12 4 22 8 22 4 0
34 -26 66 -59z"/>
<path d="M2940 7468 c0 -11 28 -10 35 1 3 6 -4 9 -15 8 -11 -1 -20 -5 -20 -9z"/>
<path d="M3020 7238 c0 -5 9 -18 19 -30 11 -13 29 -34 40 -47 12 -13 21 -19
21 -12 0 13 -79 101 -80 89z"/>
<path d="M2907 6869 c7 -7 15 -10 18 -7 3 3 -2 9 -12 12 -14 6 -15 5 -6 -5z"/>
<path d="M2448 6688 c-38 -17 -68 -34 -68 -39 0 -4 33 7 73 25 39 18 79 36 87
39 11 4 9 5 -5 5 -11 0 -50 -13 -87 -30z"/>
<path d="M1630 6621 c8 -5 42 -14 75 -21 33 -6 69 -14 80 -17 13 -3 17 -2 10
5 -5 5 -43 17 -84 26 -82 18 -103 20 -81 7z"/>
<path d="M2151 6599 c-6 -18 -11 -46 -10 -63 0 -23 4 -16 15 28 16 65 13 86
-5 35z"/>
<path d="M1930 6610 c0 -5 7 -10 15 -10 8 0 15 5 15 10 0 6 -7 10 -15 10 -8 0
-15 -4 -15 -10z"/>
<path d="M2270 6599 c0 -5 5 -7 10 -4 6 3 10 8 10 11 0 2 -4 4 -10 4 -5 0 -10
-5 -10 -11z"/>
<path d="M3110 6446 c0 -48 -197 -262 -271 -295 -33 -15 -57 -17 -132 -14 -68
4 -89 2 -81 -6 6 -6 53 -14 105 -17 85 -6 98 -4 139 16 53 27 214 189 241 242
20 40 26 98 9 98 -5 0 -10 -11 -10 -24z"/>
<path d="M1995 6380 c-15 -6 -8 -9 28 -9 30 -1 46 3 42 9 -7 12 -42 12 -70 0z"/>
<path d="M2169 6345 c17 -20 31 -45 31 -55 0 -11 5 -20 10 -20 22 0 9 53 -19
81 -42 41 -59 36 -22 -6z"/>
<path d="M2066 6275 c-28 -30 -45 -31 -80 -4 -14 11 -26 16 -26 10 0 -6 15
-22 34 -38 33 -25 34 -29 29 -75 -8 -65 3 -61 17 6 11 55 40 93 60 81 6 -4 27
-8 48 -11 l37 -4 -33 30 c-39 37 -56 37 -86 5z"/>
<path d="M2418 6179 c24 -11 49 -18 55 -16 17 5 -20 23 -63 31 l-35 6 43 -21z"/>
<path d="M2033 5958 c-39 -20 -46 -20 -97 -8 -46 11 -58 11 -71 0 -19 -16 -57
-89 -75 -144 -12 -38 -12 -41 14 -63 15 -13 40 -23 57 -23 26 0 29 -3 24 -20
-4 -12 -2 -26 3 -33 6 -7 16 -35 23 -62 26 -109 87 -143 239 -132 110 7 180
48 215 126 10 23 21 41 25 41 4 0 13 20 20 45 9 31 18 45 30 45 9 0 27 11 40
25 23 24 28 25 95 19 87 -8 78 6 -20 30 -38 10 -125 44 -192 76 -199 95 -266
111 -330 78z m57 -6 c0 -5 -14 -19 -32 -32 -26 -19 -44 -23 -108 -24 -52 -1
-83 -6 -95 -16 -17 -14 -17 -14 -2 17 23 43 32 47 69 29 44 -23 84 -20 126 9
41 28 42 28 42 17z m178 -153 c18 -6 31 -13 29 -15 -6 -6 -291 -34 -347 -34
l-45 1 30 27 c29 27 33 27 165 29 76 2 149 -2 168 -8z m-34 -105 c9 -3 16 -12
16 -19 0 -16 -22 -25 -60 -25 -19 0 -33 -7 -40 -20 -13 -24 -30 -26 -30 -5 0
8 -9 15 -20 15 -23 0 -24 4 -11 29 7 13 23 18 57 20 26 0 50 3 52 6 7 7 17 6
36 -1z m-164 -35 c0 -19 -35 -49 -57 -49 -20 0 -15 31 8 56 24 25 49 22 49 -7z"/>
<path d="M1760 5762 c0 -12 19 -26 26 -19 2 2 -2 10 -11 17 -9 8 -15 8 -15 2z"/>
<path d="M3485 5990 c-13 -6 -15 -9 -5 -9 8 0 22 4 30 9 18 12 2 12 -25 0z"/>
<path d="M3279 5903 l-24 -28 28 24 c25 23 32 31 24 31 -2 0 -14 -12 -28 -27z"/>
<path d="M6555 5878 c4 -9 2 -26 -5 -37 -14 -28 1 -27 18 0 12 18 11 24 -3 38
-15 15 -16 15 -10 -1z"/>
<path d="M6480 5785 c0 -8 7 -15 15 -15 8 0 15 4 15 9 0 5 -7 11 -15 15 -9 3
-15 0 -15 -9z"/>
<path d="M2670 4035 c0 -115 0 -115 24 -115 57 0 86 38 86 115 0 72 -30 114
-82 115 l-28 0 0 -115z"/>
<path d="M2670 3672 c0 -27 3 -84 7 -126 6 -77 6 -77 32 -71 44 10 71 50 71
104 0 67 -17 109 -51 126 -49 26 -59 21 -59 -33z"/>
<path d="M6019 4123 c-20 -23 -20 -607 -1 -640 17 -31 40 -29 54 5 18 40 18
599 0 630 -15 26 -34 28 -53 5z"/>
<path d="M3560 2764 c0 -67 13 -94 44 -94 20 0 20 14 1 30 -21 17 -21 100 0
100 18 0 35 -39 35 -81 0 -39 18 -37 25 4 12 62 -22 107 -79 107 -25 0 -26 -2
-26 -66z"/>
<path d="M5100 2390 c0 -44 4 -80 9 -80 14 0 21 27 21 80 0 53 -7 80 -21 80
-5 0 -9 -36 -9 -80z"/>
<path d="M3560 2375 c0 -36 4 -65 9 -65 11 0 21 35 21 76 0 28 3 31 25 26 17
-3 27 -13 30 -28 3 -13 7 -35 10 -49 9 -40 25 -29 25 18 0 63 -21 87 -76 87
l-44 0 0 -65z"/>
<path d="M3590 2270 c0 -13 5 -18 15 -14 12 5 13 10 4 20 -15 19 -19 18 -19
-6z"/>
<path d="M3768 2003 c7 -3 16 -2 19 1 4 3 -2 6 -13 5 -11 0 -14 -3 -6 -6z"/>
</g>
</svg>
